<svg width="206" height="499" viewBox="0 0 206 499" fill="none" xmlns="http://www.w3.org/2000/svg">
<g clip-path="url(#clip0_12_20)">
<path fill-rule="evenodd" clip-rule="evenodd" d="M161.569 270.092L124.579 390.989L107.18 481.76H89.7178L107.149 270.092H161.569Z" fill="#997659"/>
<path fill-rule="evenodd" clip-rule="evenodd" d="M178.192 270.092C175.611 332.897 176.629 367.153 177.207 372.859C177.785 378.565 181.064 416.781 203.411 483.676H185.249C155.653 419.502 145.322 381.286 141.928 372.859C138.533 364.432 128.508 330.177 113.872 270.092H178.192Z" fill="#B28B67"/>
<path fill-rule="evenodd" clip-rule="evenodd" d="M162.363 270.092C152.741 311.693 136.1 378.099 112.439 469.309H86.8976C85.0111 375.69 93.0361 314.074 106.934 270.092H162.363Z" fill="#292094"/>
<path fill-rule="evenodd" clip-rule="evenodd" d="M178.321 270.092C175.794 332.897 182.344 394.772 202.637 470.287H175.386C145.736 407.071 124.486 345.501 109.962 270.092H178.321Z" fill="#4436E3"/>
<path fill-rule="evenodd" clip-rule="evenodd" d="M206 496.127L204.998 480.802C199.13 482.43 191.781 481.791 182.95 478.887C173.455 485.266 161.502 489.622 147.091 491.955L147.091 491.955C145.991 492.133 145.252 493.122 145.44 494.165C145.452 494.233 145.468 494.3 145.488 494.366L146.873 499H182.95H203.996L206 496.127Z" fill="#F99D6C"/>
<path fill-rule="evenodd" clip-rule="evenodd" d="M111.078 496.127L110.076 480.802C104.209 482.43 96.8597 481.791 88.0289 478.887C78.5337 485.266 66.5805 489.622 52.1692 491.955L52.1692 491.955C51.0697 492.133 50.3305 493.122 50.5182 494.165C50.5303 494.233 50.5463 494.3 50.566 494.366L51.9514 499H88.0289H109.074L111.078 496.127Z" fill="#F99D6C"/>
</g>
<path fill-rule="evenodd" clip-rule="evenodd" d="M98.7835 178.817L63.7334 160.609C57.9048 154.044 52.162 148.945 46.505 145.313C44.7764 144.629 41.7535 144.214 44.5805 148.974C47.4075 153.733 50.1554 158.859 48.7151 160.325C47.2749 161.791 43.6836 159.743 41.9654 162.179C40.82 163.803 46.9555 166.369 60.3719 169.876L85.8401 191.993L98.7835 178.817ZM43.8886 194.179L28.4926 186.157C26.3323 178.36 23.75 174.438 20.7456 174.389C18.4375 173.37 22.4569 183.222 18.0817 182.368C13.7064 181.513 3.0276 173.98 1.18759 175.51C-1.53459 177.772 0.892673 184.72 3.75256 188.177C9.09768 194.636 13.5232 196.845 24.4616 199.738C30.1808 201.251 36.3642 204.282 43.0119 208.833L43.8886 194.179Z" fill="#997659"/>
<path fill-rule="evenodd" clip-rule="evenodd" d="M115.853 174.761C103.576 174.637 87.2053 172.178 69.7371 161.661L62.877 176.172C74.9261 187.513 91.8683 196.832 106.682 196.437C118.356 196.126 124.323 182.733 115.853 174.761Z" fill="#DC8B60"/>
<path fill-rule="evenodd" clip-rule="evenodd" d="M99.3226 198.03C86.2892 201.113 64.4332 197.478 33.7543 187.123C26.1447 202.055 22.627 212.7 23.2011 219.059C49.519 232.098 72.0758 237.912 90.6595 238.296C90.0689 248.754 91.4111 258.706 95.9199 267.799C105.189 286.493 159.466 269.18 177.715 272.588C189.143 237.385 167.046 223.079 167.029 200.555C167.009 175.888 146.127 137.919 143.054 137.919L115.036 137.919C113.49 156.758 105.708 177.519 99.3226 198.03Z" fill="#F99D6C"/>
<path d="M121.033 105.172C121.127 99.5938 121.76 95.1875 122.931 91.9531C124.103 88.7188 126.494 85.1328 130.103 81.1953L139.314 71.7031C143.252 67.25 145.22 62.4688 145.22 57.3594C145.22 52.4375 143.931 48.5937 141.353 45.8281C138.775 43.0156 135.025 41.6094 130.103 41.6094C125.322 41.6094 121.478 42.875 118.572 45.4062C115.666 47.9375 114.213 51.3359 114.213 55.6016H101.205C101.299 48.0078 103.994 41.8906 109.291 37.25C114.635 32.5625 121.572 30.2188 130.103 30.2188C138.963 30.2188 145.853 32.6094 150.775 37.3906C155.744 42.125 158.228 48.6406 158.228 56.9375C158.228 65.1406 154.431 73.2266 146.838 81.1953L139.174 88.7891C135.752 92.5859 134.041 98.0469 134.041 105.172H121.033ZM120.47 127.461C120.47 125.352 121.103 123.594 122.369 122.188C123.681 120.734 125.603 120.008 128.135 120.008C130.666 120.008 132.588 120.734 133.9 122.188C135.213 123.594 135.869 125.352 135.869 127.461C135.869 129.57 135.213 131.328 133.9 132.734C132.588 134.094 130.666 134.773 128.135 134.773C125.603 134.773 123.681 134.094 122.369 132.734C121.103 131.328 120.47 129.57 120.47 127.461Z" fill="#F99D6C"/>
<defs>
<clipPath id="clip0_12_20">
<rect width="155.51" height="228.908" fill="white" transform="matrix(-1 0 0 1 206 270.092)"/>
</clipPath>
</defs>
</svg>
